<?xml version="1.0" standalone="no"?>
<!DOCTYPE svg PUBLIC "-//W3C//DTD SVG 20010904//EN"
 "http://www.w3.org/TR/2001/REC-SVG-20010904/DTD/svg10.dtd">
<svg version="1.0" xmlns="http://www.w3.org/2000/svg"
 width="4167.000000pt" height="4167.000000pt" viewBox="0 0 4167.000000 4167.000000"
 preserveAspectRatio="xMidYMid meet">

<g transform="translate(0.000000,4167.000000) scale(0.100000,-0.100000)"
fill="#000000" stroke="none">
<path d="M19014 37740 c-490 -76 -920 -288 -1273 -626 -323 -309 -550 -712
-645 -1145 -47 -211 -56 -338 -56 -780 l0 -407 233 -134 232 -135 6 591 c6
637 6 638 64 854 100 365 329 704 639 947 354 276 837 424 1261 386 237 -21
443 -76 640 -170 55 -26 2343 -1343 5085 -2926 2742 -1583 5827 -3364 6855
-3958 1029 -593 1906 -1103 1950 -1131 456 -298 793 -773 930 -1310 50 -200
68 -343 69 -556 0 -196 -11 -303 -50 -489 -117 -561 -459 -1065 -939 -1386
-131 -87 -13760 -7953 -13890 -8016 -143 -69 -291 -120 -447 -151 -97 -20
-144 -23 -333 -23 -190 0 -236 3 -334 23 -703 142 -1258 652 -1440 1323 -53
195 -55 217 -61 842 l-5 587 -230 -132 -230 -133 -3 -385 c-2 -231 1 -435 8
-510 66 -735 469 -1375 1110 -1760 659 -397 1487 -438 2166 -106 139 68 13776
7937 13934 8041 531 347 930 888 1105 1494 41 144 79 338 95 488 19 169 8 564
-19 723 -49 284 -122 512 -246 765 -215 439 -523 791 -926 1057 -165 110
-13801 7980 -13944 8049 -188 90 -383 152 -610 195 -142 26 -544 29 -701 4z"/>
<path d="M33030 23098 c-239 -12 -491 -69 -720 -163 -155 -63 -159 -65 -730
-395 -283 -163 -3381 -1952 -6885 -3975 -3503 -2022 -6420 -3712 -6481 -3754
-633 -433 -1036 -1086 -1150 -1866 -14 -89 -18 -185 -19 -370 0 -260 7 -334
50 -550 141 -700 552 -1316 1141 -1707 93 -63 13688 -7916 13879 -8019 179
-95 412 -177 630 -218 483 -94 1009 -20 1454 204 653 328 1100 918 1237 1634
36 185 45 521 20 720 -52 407 -207 778 -469 1126 -135 178 -390 408 -593 533
-43 27 -2315 1340 -5049 2917 -4941 2852 -4970 2869 -5046 2945 -118 117 -172
248 -171 415 0 183 86 360 224 464 29 21 2296 1334 5038 2916 2742 1583 5031
2909 5088 2948 434 294 766 758 910 1272 58 206 74 319 79 566 4 176 2 255
-11 358 -64 502 -293 968 -651 1326 -179 179 -380 321 -620 440 -370 182 -728
255 -1155 233z m295 -468 c497 -47 945 -283 1264 -665 99 -119 161 -215 232
-360 314 -641 225 -1403 -229 -1966 -85 -105 -241 -252 -351 -329 -50 -36
-2327 -1355 -5059 -2933 -2732 -1577 -5001 -2888 -5042 -2914 -244 -154 -423
-430 -470 -726 -19 -119 -8 -329 24 -445 67 -242 222 -461 421 -594 39 -26
2298 -1332 5020 -2903 2723 -1572 4979 -2875 5015 -2898 152 -94 335 -257 451
-402 277 -344 429 -810 404 -1235 -30 -520 -247 -967 -630 -1297 -247 -213
-545 -358 -875 -425 -100 -20 -143 -23 -335 -22 -199 0 -232 2 -346 27 -145
31 -294 81 -423 141 -122 58 -13829 7973 -13931 8045 -540 380 -878 958 -946
1620 -15 142 -6 451 16 581 51 305 168 615 326 861 161 251 416 507 664 665
142 91 13716 7926 13840 7988 298 151 635 216 960 186z"/>
</g>
</svg>
